# xmcd
#
# Track frame offsets: 
#        150
#        18737
#        29857
#        45205
#        62997
#        77150
#        95435
#        110565
#        125317
#        146837
#        162832
#        188967
#        203092
#        222842
#
# Disc length: 3146 seconds
#
# Revision: 2
# Processed by: cddbd v1.5.2PL0 Copyright (c) Steve Scherf et al.
# Submitted via: ExactAudioCopy v0.95b4
#
DISCID=cb0c480e
DTITLE=Willie Dixon - The Songs Of Willie Dixon
DYEAR=1999
DGENRE=Blues
TTITLE0=Doug Wainoris - Spoonful
TTITLE1=John Mooney - When the Lights Go Out
TTITLE2=Eddie Kirkland - Do Me Right
TTITLE3=Tab Benoit - Mellow Down Easy
TTITLE4=Kenny Neal - Bring It On Home
TTITLE5=Eddie Shaw - I Ain't Superstitious
TTITLE6=Christine Ohlman and Sonny Landreth - Crazy for My Baby
TTITLE7=John Ellison and Christine Ohlman - Wang Dang Doodle
TTITLE8=Willie Smith - The Same Thing
TTITLE9=Jerry Portnoy and David Maxwell - Shakin' the Shack
TTITLE10=Luther "Guitar Junior" Johnson and  Ronnie Earl - My Love Will 
TTITLE10=Never Die
TTITLE11=Deborah Coleman - Good Understanding
TTITLE12=Doug Wainoris - If the Sea was Whiskey
TTITLE13=Clarence "Gatemouth" Brown - I Just Want to Make Love to You
EXTD=freedb entry had the track names contained in the artist field - i
EXTD=corrected this in this submission
EXTT0=
EXTT1=
EXTT2=
EXTT3=
EXTT4=
EXTT5=
EXTT6=
EXTT7=
EXTT8=
EXTT9=
EXTT10=
EXTT11=
EXTT12=
EXTT13=
PLAYORDER=
